PathFileType  4	(X/Y/Z) C:\Users\antoi\Documents\MyRepositories\mobilecap\ResultsAnalysis
DataRate	CameraRate	NumFrames	NumMarkers	Units	OrigDataRate	OrigDataStartFrame	OrigNumFrames
100.0	100.0	5	51	mm	100.0	35	279
Frame#	Time	r_knee			r_shank_antsup			r_ankle			r_calc			r_5meta			r_toe			L_knee			L_shank_antsup			L_ankle			L_calc			L_5meta			L_toe			r_sh2			r_sh3			r_sh4			L_sh2			L_sh3			r_thigh1			r_thigh2			r_thigh3			r_thigh4			r_thigh5			L_thigh1			L_thigh2			L_thigh3			L_thigh4			r.ASIS			r.PSIS			L.ASIS			L.PSIS			C7			R_Shoulder			L_Shoulder			R_Sternum			L_Sternum			R_humerus			R_elbow_med			R_elbow_lat			R_forearm			R_wrist_radius			R_wrist_ulna			L_humerus			L_elbow_med			L_elbow_lat			L_forearm			L_wrist_radius			L_wrist_ulna			R_HJC			L_HJC			R_HJC_reg			L_HJC_reg			
		X1	Y1	Z1	X2	Y2	Z2	X3	Y3	Z3	X4	Y4	Z4	X5	Y5	Z5	X6	Y6	Z6	X7	Y7	Z7	X8	Y8	Z8	X9	Y9	Z9	X10	Y10	Z10	X11	Y11	Z11	X12	Y12	Z12	X13	Y13	Z13	X14	Y14	Z14	X15	Y15	Z15	X16	Y16	Z16	X17	Y17	Z17	X18	Y18	Z18	X19	Y19	Z19	X20	Y20	Z20	X21	Y21	Z21	X22	Y22	Z22	X23	Y23	Z23	X24	Y24	Z24	X25	Y25	Z25	X26	Y26	Z26	X27	Y27	Z27	X28	Y28	Z28	X29	Y29	Z29	X30	Y30	Z30	X31	Y31	Z31	X32	Y32	Z32	X33	Y33	Z33	X34	Y34	Z34	X35	Y35	Z35	X36	Y36	Z36	X37	Y37	Z37	X38	Y38	Z38	X39	Y39	Z39	X40	Y40	Z40	X41	Y41	Z41	X42	Y42	Z42	X43	Y43	Z43	X44	Y44	Z44	X45	Y45	Z45	X46	Y46	Z46	X47	Y47	Z47	X48	Y48	Z48	X49	Y49	Z49	X50	Y50	Z50	X51	Y51	Z51	

35	0.34000000	-1189.83034	831.39822	-442.88368	-1173.78105	746.20662	-426.20352	-1307.19057	408.19296	-454.13535	-1365.10487	355.14843	-503.93665	-1168.40991	351.17821	-405.84060	-1130.86881	378.25854	-462.52487	-1168.91712	825.86232	-734.74783	-1159.24438	705.50960	-749.13666	-1293.47392	407.63814	-742.19766	-1364.63019	358.42075	-706.73142	-1121.48408	374.50741	-710.25580	-1144.34752	347.62451	-774.13293	-1204.04136	636.69451	-423.53390	-1245.48815	764.88529	-413.53641	-1283.67385	654.93152	-414.61271	-1240.68351	738.11466	-770.69878	-1271.82920	618.62373	-769.42027	-1206.00075	1152.01696	-408.77867	-1166.68091	1048.43972	-420.48042	-1209.04900	1004.20825	-395.48902	-1311.37273	1107.24270	-410.41708	-1262.30048	1000.24684	-410.41827	-1181.08154	1154.54301	-753.93674	-1136.63357	1023.58301	-749.27533	-1296.28206	1112.05589	-766.57355	-1238.21093	982.36127	-766.23449	-1216.81766	1321.61987	-455.53521	-1394.35934	1394.18301	-544.67489	-1201.59675	1312.50070	-712.39910	-1388.59408	1388.32282	-651.57162	-1247.85810	1891.55741	-612.69803	-1226.29368	1860.08869	-440.65612	-1183.24331	1849.33848	-762.08915	-1125.14236	1785.41769	-559.37715	-1119.18020	1778.55095	-615.59234	-1337.01173	1631.52412	-327.39686	-1389.73391	1537.29118	-393.76316	-1384.61995	1553.12207	-305.75868	-1296.04532	1417.28341	-282.37438	-1238.54724	1317.63885	-287.22440	-1275.45857	1312.48388	-262.63891	-1277.90258	1632.06338	-884.80322	-1367.53938	1555.48984	-848.75208	-1331.48406	1561.15840	-910.92288	-1265.99685	1396.19387	-921.45462	-1229.24793	1306.13502	-905.12584	-1258.00514	1298.34715	-931.13031	-1313.99676	1259.81509	-465.32761	-1297.93335	1250.89594	-694.96166	-1301.21556	1263.22276	-493.43882	-1292.08533	1253.93731	-662.87160	
36	0.35000000	-1187.46471	830.54637	-442.76096	-1171.73144	745.34610	-425.89159	-1307.23990	408.25332	-454.05362	-1365.22518	355.11390	-503.99898	-1168.54459	351.51396	-405.82573	-1131.01731	378.68416	-462.41095	-1166.97489	825.25353	-734.10198	-1157.71499	704.89377	-748.34672	-1293.62902	407.55096	-741.79200	-1364.84983	358.22025	-706.50702	-1121.64082	374.84312	-710.12468	-1144.38839	348.01028	-774.14252	-1202.61662	636.06771	-423.42830	-1243.30527	764.62476	-413.31464	-1282.34027	654.83718	-414.55598	-1238.92021	738.01427	-770.23569	-1270.67864	618.52273	-768.98140	-1206.25550	1150.48603	-408.06217	-1164.80949	1047.62284	-419.69870	-1207.92081	1003.06427	-395.02714	-1311.39879	1104.93597	-410.46344	-1261.08604	998.52517	-410.34561	-1181.91026	1153.21152	-754.59088	-1135.81703	1022.91459	-748.38349	-1297.27754	1109.38892	-763.79665	-1237.04338	981.04441	-765.42256	-1217.40216	1319.62429	-454.88085	-1394.16602	1392.95965	-544.57244	-1202.06017	1310.48139	-711.46060	-1388.66593	1387.23939	-651.08428	-1241.97092	1889.15321	-612.31303	-1221.04189	1857.73788	-440.31922	-1177.43112	1846.02400	-762.01736	-1120.75241	1781.83382	-559.13261	-1114.52033	1775.01974	-616.27969	-1337.94335	1632.20180	-326.92772	-1393.10767	1539.26660	-393.30462	-1388.06343	1555.51866	-305.36628	-1305.83373	1415.91121	-280.28547	-1252.87020	1313.77220	-283.65714	-1290.00281	1310.47161	-259.49317	-1278.12981	1632.01364	-885.38641	-1369.76437	1558.40815	-849.46643	-1334.01713	1562.94835	-911.52544	-1275.50714	1395.41454	-923.57775	-1242.15798	1304.01155	-908.28294	-1271.16318	1297.51165	-934.30785	-1314.89483	1258.32000	-464.79218	-1298.54386	1249.29292	-694.40187	-1301.78041	1261.63488	-492.62589	-1293.02013	1252.53503	-661.91259	
37	0.36000000	-1185.02895	829.70021	-442.60307	-1169.61981	744.54733	-425.39248	-1307.27706	408.32686	-453.89512	-1365.35446	355.07753	-504.01316	-1168.64685	351.83606	-405.85268	-1131.13985	379.20690	-462.37211	-1164.84526	824.65862	-733.66569	-1156.09160	704.24547	-747.76115	-1293.66668	407.57277	-741.58490	-1365.07018	358.07438	-706.31603	-1121.75296	375.12914	-710.05542	-1144.42017	348.29733	-774.13262	-1201.35736	635.42406	-423.19418	-1241.05784	764.33060	-413.39003	-1280.89125	654.77342	-414.43839	-1237.06252	737.72903	-769.57017	-1269.27897	618.50313	-768.79081	-1206.25117	1148.97654	-407.46304	-1163.31782	1046.80387	-419.06681	-1206.76056	1001.81949	-394.81589	-1311.12803	1102.61966	-410.15380	-1259.78245	996.64485	-410.53722	-1183.43461	1151.16104	-756.37265	-1134.96119	1022.21395	-747.55817	-1298.55725	1105.28564	-762.66008	-1235.90984	979.53767	-764.27832	-1217.91157	1317.60445	-454.14295	-1394.35287	1391.83029	-543.80430	-1202.53167	1308.46987	-710.80737	-1388.93784	1386.11112	-651.01480	-1236.20511	1886.57166	-612.00476	-1215.59788	1855.31335	-439.97980	-1171.57978	1842.56164	-761.95179	-1116.18353	1778.19010	-558.91627	-1109.98575	1771.02386	-615.70998	-1338.92267	1633.05189	-326.57808	-1397.63223	1541.11474	-392.92180	-1391.58753	1558.19921	-305.22108	-1316.03702	1415.06662	-278.28210	-1267.81833	1310.13389	-280.65008	-1305.15208	1309.20316	-256.40389	-1278.38449	1632.00192	-885.92519	-1371.72900	1561.59141	-850.09647	-1336.63736	1564.88593	-911.77686	-1285.62938	1395.03271	-925.20642	-1255.44197	1302.12260	-911.17575	-1284.92647	1297.13393	-937.23457	-1315.78746	1256.80695	-464.25221	-1299.30568	1247.71832	-693.85010	-1302.48754	1260.00053	-491.85436	-1293.91858	1250.96081	-661.20867	
38	0.37000000	-1182.37850	828.93483	-442.43019	-1167.49877	743.70549	-425.03516	-1307.35243	408.39744	-453.78521	-1365.52139	355.01445	-503.99852	-1168.72614	352.26063	-405.82364	-1131.30864	379.81386	-462.44159	-1162.66397	823.90363	-733.03089	-1154.43382	703.49865	-747.28778	-1293.53496	407.58697	-741.58243	-1365.11402	358.00933	-706.24278	-1121.81582	375.22629	-709.96262	-1144.42716	348.51771	-774.18825	-1200.18406	634.87729	-422.96927	-1238.78007	764.04350	-413.51526	-1279.39052	654.81701	-414.29506	-1235.13245	737.36952	-768.91669	-1267.91748	618.44341	-768.52248	-1206.22901	1147.76013	-406.51395	-1162.01651	1046.06091	-418.72232	-1205.45972	1000.50042	-394.63494	-1310.04243	1100.89993	-409.30724	-1258.36521	994.98165	-410.44766	-1184.26585	1149.35150	-757.02938	-1134.06619	1021.46234	-746.72229	-1298.89562	1102.13770	-762.51948	-1234.77011	978.08262	-763.48024	-1218.39612	1315.46932	-453.53875	-1395.90377	1391.16295	-541.44774	-1202.93114	1306.48265	-710.44400	-1389.37307	1384.87720	-651.29591	-1230.43612	1883.80725	-611.78743	-1209.96794	1852.79610	-439.50945	-1165.66620	1838.89413	-761.76280	-1111.46762	1774.37480	-558.40816	-1105.43401	1766.92489	-614.92680	-1339.85629	1634.08388	-326.30570	-1402.72938	1543.07684	-392.63963	-1395.14656	1561.13050	-305.25038	-1326.53011	1414.90876	-276.34987	-1283.17499	1307.19466	-277.91383	-1320.77210	1308.97171	-253.29180	-1278.62458	1632.13376	-886.52787	-1373.78576	1564.71639	-850.55363	-1339.25002	1567.10108	-912.10804	-1295.80962	1395.26930	-926.97123	-1268.92257	1300.70367	-914.00781	-1299.08476	1297.41280	-939.88947	-1316.82746	1255.23768	-463.57723	-1300.48748	1246.30958	-693.19119	-1304.14670	1258.64401	-491.95300	-1294.13719	1248.97805	-661.32737	
39	0.38000000	-1179.66019	828.17358	-442.33004	-1165.37713	742.75749	-424.89045	-1307.44480	408.45436	-453.75032	-1365.70494	354.92083	-503.97759	-1168.81861	352.75104	-405.82783	-1131.55368	380.36119	-462.60582	-1160.56683	822.92327	-732.19627	-1152.70507	702.67553	-746.75858	-1293.33859	407.52348	-741.65724	-1365.01418	357.97108	-706.24213	-1121.84882	375.15186	-709.83654	-1144.39963	348.66108	-774.29397	-1198.91302	634.24879	-423.00903	-1236.48957	763.71155	-413.41583	-1277.87552	654.85847	-414.18285	-1233.17151	737.02965	-768.45514	-1266.75206	618.17303	-767.86619	-1206.11114	1146.61983	-405.62942	-1160.68550	1045.39179	-418.49979	-1203.97015	999.22043	-394.32391	-1308.80484	1099.20993	-408.49781	-1256.82204	993.50503	-410.03049	-1184.28056	1148.17299	-756.43222	-1133.21637	1020.65641	-746.02892	-1298.31294	1100.49426	-762.54421	-1233.60536	976.69964	-763.24524	-1218.83689	1313.18264	-453.09729	-1397.62915	1390.47865	-539.02363	-1203.35781	1304.36080	-710.05461	-1389.61790	1383.53117	-651.22218	-1224.40035	1880.85340	-611.52901	-1204.05233	1850.14746	-438.78630	-1159.62507	1834.99360	-761.34833	-1106.76789	1770.10590	-557.44777	-1100.76280	1762.79219	-614.37907	-1340.77484	1635.28639	-325.99871	-1407.18485	1545.63899	-392.59904	-1398.71751	1564.39358	-305.38274	-1337.28576	1415.44250	-274.54980	-1298.77315	1305.50055	-275.11970	-1336.65904	1309.83710	-250.36223	-1278.86854	1632.34983	-886.88745	-1375.95328	1567.92006	-850.35313	-1341.82847	1569.56842	-912.45507	-1305.83475	1396.10084	-929.10731	-1282.88225	1300.03050	-916.49151	-1313.37575	1298.54058	-942.39224	-1317.83178	1253.53971	-462.84783	-1301.74758	1244.82581	-692.48814	-1306.08398	1257.27533	-492.45895	-1294.03749	1246.81204	-661.69003	
